<svg width="34" height="34" viewBox="0 0 34 34" fill="none" xmlns="http://www.w3.org/2000/svg">
<path fill-rule="evenodd" clip-rule="evenodd" d="M10.5244 0.982422C10.2866 1.09249 10.0734 1.31906 9.98306 1.55769C9.93876 1.67464 9.91456 2.63207 9.91456 4.26779V6.79711L8.3143 6.81631C6.55362 6.83744 6.55645 6.8368 6.22746 7.27766C6.09971 7.44886 6.09509 7.5328 6.09509 9.69325C6.09509 11.8537 6.09971 11.9376 6.22746 12.1088C6.50747 12.4841 6.66467 12.5492 7.34588 12.5729L7.97787 12.5948L8.00605 15.5591C8.03217 18.3026 8.04463 18.5699 8.17327 19.1491C8.55727 20.8782 9.31263 22.2585 10.5552 23.5016C11.5648 24.5116 12.6384 25.1822 13.9373 25.6143C14.495 25.7999 15.3762 26.0048 15.6162 26.0048C15.7191 26.0048 15.7512 26.0839 15.8185 26.5025C16.0206 27.76 16.6712 29.278 17.4518 30.3134C18.9716 32.3292 21.3373 33.5981 23.8642 33.7528C24.4201 33.7868 24.5634 33.7752 24.7639 33.68C25.4167 33.3701 25.5033 32.4457 24.9186 32.0292C24.7653 31.92 24.5804 31.8799 24.0347 31.8375C21.5111 31.6412 19.4171 30.2614 18.3506 28.0919C18.0695 27.52 17.6819 26.3475 17.6819 26.069C17.6819 26.0426 17.9374 25.9744 18.2497 25.9172C19.9245 25.6107 21.4012 24.8397 22.6672 23.6108C24.0735 22.2458 24.9398 20.5787 25.2274 18.6839C25.2971 18.225 25.3202 17.3948 25.3204 15.3343L25.3208 12.5948L25.9788 12.5729C26.5351 12.5544 26.6678 12.5288 26.8375 12.4078C27.2356 12.1237 27.2466 12.0508 27.2466 9.69325C27.2466 7.33571 27.2356 7.26282 26.8375 6.97872C26.6445 6.84103 26.5741 6.83474 25.0159 6.81637L23.395 6.79724V4.22521C23.395 1.38251 23.3922 1.36054 22.9859 1.07059C22.8404 0.966753 22.6939 0.927387 22.4529 0.927387C22.0939 0.927387 21.876 1.04497 21.6337 1.36947C21.5059 1.54074 21.5007 1.63533 21.4833 4.17506L21.4652 6.8034H16.6528H11.8403V4.22829C11.8403 1.39214 11.8362 1.35932 11.4414 1.07811C11.2043 0.909213 10.7786 0.864774 10.5244 0.982422ZM17.0797 12.6873C17.4786 12.8767 17.7036 13.388 17.589 13.8448C17.5642 13.9435 17.2865 14.2856 16.9643 14.6143L16.3842 15.206L17.7995 15.9185C19.2631 16.6552 19.443 16.7875 19.5168 17.1812C19.6126 17.6918 19.5426 17.802 18.3664 18.9926C17.7604 19.6061 17.1866 20.1488 17.0913 20.1987C16.5418 20.4862 15.7996 20.0624 15.7123 19.4112C15.6647 19.0564 15.8 18.8216 16.4182 18.1865C16.7017 17.8953 16.9215 17.646 16.9066 17.6325C16.8917 17.6191 16.2393 17.2865 15.4568 16.8936C14.0802 16.2022 14.0299 16.1702 13.9002 15.9021C13.6128 15.3081 13.7457 15.0645 15.0724 13.7524C15.6497 13.1816 16.1913 12.6868 16.2761 12.6529C16.5125 12.5582 16.837 12.5722 17.0797 12.6873Z" fill="#2C2B46"/>
</svg>
