<svg width="34" height="34" viewBox="0 0 34 34" fill="none" xmlns="http://www.w3.org/2000/svg">
<path fill-rule="evenodd" clip-rule="evenodd" d="M4.65615 0.73137C3.69488 0.922561 2.85141 1.66893 2.51223 2.62854C2.39167 2.96958 2.3775 3.18635 2.3527 5.07185C2.33552 6.37699 2.35154 7.33467 2.39609 7.66565C2.48857 8.35293 2.74731 8.90138 3.18411 9.33619C3.81633 9.96546 4.48739 10.2133 5.5591 10.2133H6.17676L6.19599 12.3765C6.21458 14.4752 6.21953 14.5484 6.36047 14.8345C7.02877 16.1907 8.84402 16.3192 9.68506 15.0698C9.97046 14.6457 10.0287 14.1955 10.0287 12.4127C10.0287 10.9189 10.033 10.8667 10.1742 10.6554C10.5566 10.0831 11.3596 10.0831 11.7419 10.6554C11.8668 10.8423 11.8874 10.9566 11.8874 11.4608C11.8874 12.5 12.0278 12.989 12.4553 13.4395C13.4249 14.4609 15.1066 14.1039 15.6139 12.7688C15.7136 12.5066 15.7331 12.2717 15.7331 11.3342V10.2133H20.2061C25.1083 10.2133 25.091 10.2145 25.7602 9.82996C26.1479 9.60718 26.6147 9.13628 26.8425 8.73826C27.0777 8.32697 27.2038 7.71699 27.2049 6.98389L27.2058 6.3502L27.809 6.38179C28.4686 6.41628 28.7227 6.51658 28.9616 6.83686C29.0878 7.00594 29.0978 7.10977 29.115 8.4392C29.1327 9.8124 29.1284 9.87054 28.9868 10.1477C28.9062 10.3056 28.7537 10.484 28.6479 10.5444C28.5422 10.6047 26.0206 11.3472 23.0444 12.1944C20.0682 13.0415 17.482 13.8111 17.2972 13.9046C17.1124 13.9982 16.8128 14.2223 16.6314 14.4027C15.9682 15.0625 15.7356 15.7166 15.734 16.9271L15.7331 17.6482H16.6891H17.6452L17.6665 16.8835C17.6894 16.0642 17.7407 15.9211 18.1085 15.6502C18.1944 15.5869 20.7019 14.8415 23.6807 13.9937C26.6594 13.146 29.2508 12.3777 29.4394 12.2864C30.2037 11.9165 30.8474 11.0264 30.9851 10.1492C31.0644 9.64365 31.0686 7.59098 30.9915 6.99312C30.8876 6.18734 30.4016 5.41084 29.7175 4.9577C29.2389 4.64069 28.7066 4.50898 27.9041 4.50898H27.2058L27.2049 3.88407C27.2043 3.5404 27.1603 3.07418 27.107 2.84819C26.8914 1.93338 26.1565 1.13375 25.2281 0.803668C24.9568 0.707271 24.0451 0.696952 14.9319 0.687082C9.43266 0.681121 4.80857 0.701054 4.65615 0.73137Z" fill="#2C2B46"/>
<path opacity="0.4" fill-rule="evenodd" clip-rule="evenodd" d="M12.2323 19.727C11.9889 19.833 11.8861 20.0919 11.89 20.59C11.8962 21.3864 11.9185 21.4271 12.8737 22.3842L13.7464 23.2585L13.192 25.9814C12.6941 28.4267 12.6376 28.7762 12.6376 29.4093C12.6376 30.008 12.6639 30.1917 12.8119 30.6271C13.097 31.466 13.5483 32.117 14.1819 32.6038C14.9763 33.2139 15.6697 33.4466 16.6942 33.4466C17.7188 33.4466 18.4122 33.2139 19.2066 32.6038C19.8462 32.1125 20.3213 31.4304 20.5835 30.6271C20.7228 30.2004 20.7509 29.996 20.7508 29.4093C20.7506 28.7766 20.6939 28.4252 20.1967 25.983L19.6427 23.2617L20.54 22.3567L21.4372 21.4518V20.8618C21.4372 20.2133 21.3475 19.9065 21.1092 19.7396C20.9748 19.6455 20.5369 19.6353 16.696 19.6376C13.252 19.6396 12.3936 19.6568 12.2323 19.727Z" fill="#2C2B46"/>
</svg>
